<svg height="512" viewBox="0 0 64 64" width="512" xmlns="http://www.w3.org/2000/svg" xmlns:xlink="http://www.w3.org/1999/xlink"><linearGradient id="New_Gradient_Swatch_3" gradientUnits="userSpaceOnUse" x1="32" x2="32" y1="62.117" y2="6.515"><stop offset="0" stop-color="#006df0"/><stop offset="1" stop-color="#00e7f0"/></linearGradient><linearGradient id="New_Gradient_Swatch_3-3" x1="27" x2="27" xlink:href="#New_Gradient_Swatch_3" y1="62.117" y2="6.515"/><linearGradient id="New_Gradient_Swatch_3-4" x1="40" x2="40" xlink:href="#New_Gradient_Swatch_3" y1="62.117" y2="6.515"/><linearGradient id="New_Gradient_Swatch_3-5" x1="23" x2="23" xlink:href="#New_Gradient_Swatch_3" y1="62.117" y2="6.515"/><linearGradient id="New_Gradient_Swatch_3-6" x1="36" x2="36" xlink:href="#New_Gradient_Swatch_3" y1="62.117" y2="6.515"/><g id="virus-cell-covid19-corona-coronavirus"><path d="m32 62a4 4 0 0 1 -2.423-7.186l-.3-5.018a17.527 17.527 0 0 1 -3.825-1.029l-2.767 4.2a4 4 0 1 1 -4.19-2.421l2.255-4.494a17.912 17.912 0 0 1 -2.807-2.807l-4.49 2.255a4 4 0 1 1 -2.421-4.19l4.2-2.766a17.527 17.527 0 0 1 -1.032-3.825l-5.018-.3a4 4 0 1 1 0-4.846l5.018-.3a17.527 17.527 0 0 1 1.029-3.825l-4.2-2.767a4 4 0 1 1 2.424-4.181l4.494 2.254a17.912 17.912 0 0 1 2.807-2.807l-2.254-4.494a4 4 0 1 1 4.19-2.421l2.767 4.2a17.43 17.43 0 0 1 3.824-1.032l.3-5.018a4 4 0 1 1 4.846 0l.3 5.018a17.43 17.43 0 0 1 3.825 1.029l2.767-4.2a4 4 0 1 1 4.19 2.421l-2.255 4.494a17.912 17.912 0 0 1 2.807 2.807l4.486-2.251a4 4 0 1 1 2.421 4.189l-4.2 2.767a17.527 17.527 0 0 1 1.032 3.825l5.018.3a4 4 0 1 1 0 4.846l-5.018.3a17.527 17.527 0 0 1 -1.029 3.825l4.2 2.766a4 4 0 1 1 -2.421 4.19l-4.494-2.254a17.912 17.912 0 0 1 -2.807 2.807l2.251 4.486a4 4 0 1 1 -4.19 2.421l-2.767-4.2a17.527 17.527 0 0 1 -3.824 1.032l-.3 5.018a4 4 0 0 1 -2.419 7.182zm-6.919-15.48a1 1 0 0 1 .414.09 15.543 15.543 0 0 0 4.84 1.306 1 1 0 0 1 .894.935l.379 6.43a1 1 0 0 1 -.536.946 2 2 0 1 0 1.856 0 1 1 0 0 1 -.536-.946l.379-6.43a1 1 0 0 1 .894-.935 15.543 15.543 0 0 0 4.84-1.306 1 1 0 0 1 1.25.36l3.55 5.39a1 1 0 0 1 0 1.094 1.975 1.975 0 0 0 -.041 2.068 2.008 2.008 0 0 0 3.669-.494 2.006 2.006 0 0 0 -2.021-2.509 1 1 0 0 1 -.939-.551l-2.89-5.76a1 1 0 0 1 .307-1.258 15.891 15.891 0 0 0 3.556-3.556 1 1 0 0 1 1.258-.308l5.76 2.891a1 1 0 0 1 .551.939 2 2 0 0 0 3.729 1.084 2.007 2.007 0 0 0 -.726-2.735 1.973 1.973 0 0 0 -2.064.044 1 1 0 0 1 -1.094 0l-5.39-3.55a1 1 0 0 1 -.361-1.251 15.5 15.5 0 0 0 1.307-4.838 1 1 0 0 1 .936-.894l6.429-.38a1 1 0 0 1 .946.536 2 2 0 1 0 0-1.856 1 1 0 0 1 -.946.536l-6.429-.38a1 1 0 0 1 -.936-.894 15.5 15.5 0 0 0 -1.307-4.838 1 1 0 0 1 .361-1.251l5.39-3.55a1 1 0 0 1 1.094 0 1.978 1.978 0 0 0 2.067.042 2.007 2.007 0 0 0 -.493-3.669 2 2 0 0 0 -2.509 2.02 1 1 0 0 1 -.551.939l-5.76 2.891a1 1 0 0 1 -1.258-.308 15.891 15.891 0 0 0 -3.556-3.556 1 1 0 0 1 -.307-1.258l2.89-5.76a1 1 0 0 1 .939-.551 2 2 0 0 0 1.084-3.732 2.006 2.006 0 0 0 -2.735.725 1.973 1.973 0 0 0 .043 2.064 1 1 0 0 1 0 1.094l-3.55 5.39a1 1 0 0 1 -1.25.36 15.5 15.5 0 0 0 -4.839-1.306 1 1 0 0 1 -.895-.935l-.379-6.43a1 1 0 0 1 .536-.946 2 2 0 1 0 -1.856 0 1 1 0 0 1 .536.946l-.379 6.43a1 1 0 0 1 -.895.935 15.5 15.5 0 0 0 -4.837 1.306 1 1 0 0 1 -1.25-.36l-3.55-5.39a1 1 0 0 1 0-1.094 1.975 1.975 0 0 0 .041-2.068 2.007 2.007 0 0 0 -3.668.493 2 2 0 0 0 2.02 2.51 1 1 0 0 1 .939.551l2.89 5.76a1 1 0 0 1 -.307 1.258 15.891 15.891 0 0 0 -3.556 3.556 1 1 0 0 1 -1.258.308l-5.76-2.891a1 1 0 0 1 -.551-.939 2 2 0 0 0 -3.734-1.084 2.007 2.007 0 0 0 .726 2.735 1.977 1.977 0 0 0 2.064-.044 1 1 0 0 1 1.094 0l5.39 3.55a1 1 0 0 1 .361 1.251 15.5 15.5 0 0 0 -1.307 4.838 1 1 0 0 1 -.936.894l-6.429.38a.994.994 0 0 1 -.946-.536 2 2 0 1 0 0 1.856 1 1 0 0 1 .946-.536l6.429.38a1 1 0 0 1 .936.894 15.5 15.5 0 0 0 1.307 4.838 1 1 0 0 1 -.361 1.251l-5.39 3.55a1 1 0 0 1 -1.094 0 1.972 1.972 0 0 0 -2.067-.042 2.007 2.007 0 0 0 .493 3.669 2 2 0 0 0 2.509-2.02 1 1 0 0 1 .551-.939l5.76-2.891a1 1 0 0 1 1.258.308 15.891 15.891 0 0 0 3.556 3.556 1 1 0 0 1 .307 1.258l-2.89 5.76a1 1 0 0 1 -.939.551 2.005 2.005 0 0 0 -2.021 2.509 2.008 2.008 0 0 0 3.671.49 1.973 1.973 0 0 0 -.043-2.064 1 1 0 0 1 0-1.094l3.55-5.39a1 1 0 0 1 .84-.442z" fill="url(#New_Gradient_Swatch_3)"/><path d="m32 27a4 4 0 1 1 4-4 4 4 0 0 1 -4 4zm0-6a2 2 0 1 0 2 2 2 2 0 0 0 -2-2z" fill="url(#New_Gradient_Swatch_3)"/><path d="m27 41a4 4 0 1 1 4-4 4 4 0 0 1 -4 4zm0-6a2 2 0 1 0 2 2 2 2 0 0 0 -2-2z" fill="url(#New_Gradient_Swatch_3-3)"/><path d="m40 37a5 5 0 1 1 5-5 5.006 5.006 0 0 1 -5 5zm0-8a3 3 0 1 0 3 3 3 3 0 0 0 -3-3z" fill="url(#New_Gradient_Swatch_3-4)"/><path d="m23 32a3 3 0 1 1 3-3 3 3 0 0 1 -3 3zm0-4a1 1 0 1 0 1 1 1 1 0 0 0 -1-1z" fill="url(#New_Gradient_Swatch_3-5)"/><path d="m36 44a3 3 0 1 1 3-3 3 3 0 0 1 -3 3zm0-4a1 1 0 1 0 1 1 1 1 0 0 0 -1-1z" fill="url(#New_Gradient_Swatch_3-6)"/></g></svg>